<svg width="108" height="50" viewBox="0 0 108 50" fill="none" xmlns="http://www.w3.org/2000/svg">
<rect width="108" height="50" rx="10" fill="url(#paint0_linear_7_17)"/>
<path d="M26.0605 23.08C25.7725 22.5253 25.3725 22.1093 24.8605 21.832C24.3485 21.544 23.7565 21.4 23.0845 21.4C22.3485 21.4 21.6925 21.5653 21.1165 21.896C20.5405 22.2267 20.0872 22.696 19.7565 23.304C19.4365 23.912 19.2765 24.616 19.2765 25.416C19.2765 26.216 19.4365 26.9253 19.7565 27.544C20.0872 28.152 20.5405 28.6213 21.1165 28.952C21.6925 29.2827 22.3485 29.448 23.0845 29.448C24.0765 29.448 24.8818 29.1707 25.5005 28.616C26.1192 28.0613 26.4978 27.3093 26.6365 26.36H22.4605V24.904H28.5885V26.328C28.4712 27.192 28.1618 27.9867 27.6605 28.712C27.1698 29.4373 26.5245 30.0187 25.7245 30.456C24.9352 30.8827 24.0552 31.096 23.0845 31.096C22.0392 31.096 21.0845 30.856 20.2205 30.376C19.3565 29.8853 18.6685 29.208 18.1565 28.344C17.6552 27.48 17.4045 26.504 17.4045 25.416C17.4045 24.328 17.6552 23.352 18.1565 22.488C18.6685 21.624 19.3565 20.952 20.2205 20.472C21.0952 19.9813 22.0498 19.736 23.0845 19.736C24.2685 19.736 25.3192 20.0293 26.2365 20.616C27.1645 21.192 27.8365 22.0133 28.2525 23.08H26.0605ZM32.2115 19.88V31H30.3875V19.88H32.2115ZM41.1503 19.88V21.368H36.4303V24.648H40.1103V26.136H36.4303V31H34.6063V19.88H41.1503ZM46.0406 31.144C45.3473 31.144 44.7233 31.0213 44.1686 30.776C43.6246 30.52 43.1926 30.1787 42.8726 29.752C42.5526 29.3147 42.382 28.8293 42.3606 28.296H44.2486C44.2806 28.6693 44.4566 28.984 44.7766 29.24C45.1073 29.4853 45.518 29.608 46.0086 29.608C46.5206 29.608 46.9153 29.512 47.1926 29.32C47.4806 29.1173 47.6246 28.8613 47.6246 28.552C47.6246 28.2213 47.4646 27.976 47.1446 27.816C46.8353 27.656 46.3393 27.48 45.6566 27.288C44.9953 27.1067 44.4566 26.9307 44.0406 26.76C43.6246 26.5893 43.262 26.328 42.9526 25.976C42.654 25.624 42.5046 25.16 42.5046 24.584C42.5046 24.1147 42.6433 23.688 42.9206 23.304C43.198 22.9093 43.5926 22.6 44.1046 22.376C44.6273 22.152 45.2246 22.04 45.8966 22.04C46.8993 22.04 47.7046 22.296 48.3126 22.808C48.9313 23.3093 49.262 23.9973 49.3046 24.872H47.4806C47.4486 24.4773 47.2886 24.1627 47.0006 23.928C46.7126 23.6933 46.3233 23.576 45.8326 23.576C45.3526 23.576 44.9846 23.6667 44.7286 23.848C44.4726 24.0293 44.3446 24.2693 44.3446 24.568C44.3446 24.8027 44.43 25 44.6006 25.16C44.7713 25.32 44.9793 25.448 45.2246 25.544C45.47 25.6293 45.8326 25.7413 46.3126 25.88C46.9526 26.0507 47.4753 26.2267 47.8806 26.408C48.2966 26.5787 48.654 26.8347 48.9526 27.176C49.2513 27.5173 49.406 27.9707 49.4166 28.536C49.4166 29.0373 49.278 29.4853 49.0006 29.88C48.7233 30.2747 48.3286 30.584 47.8166 30.808C47.3153 31.032 46.7233 31.144 46.0406 31.144Z" fill="white"/>
<path d="M63.1786 28.3732C62.7954 28.7271 62.2046 28.7271 61.8214 28.3732L57.8825 24.7346C57.214 24.117 57.6509 23 58.5611 23L66.4389 23C67.3491 23 67.786 24.117 67.1175 24.7346L63.1786 28.3732Z" fill="white"/>
<defs>
<linearGradient id="paint0_linear_7_17" x1="1.92857" y1="6.45161" x2="107.208" y2="44.8695" gradientUnits="userSpaceOnUse">
<stop stop-color="#F473A3"/>
<stop offset="1" stop-color="#FE5661"/>
</linearGradient>
</defs>
</svg>
